<svg xmlns="http://www.w3.org/2000/svg" viewBox="0 0 1240 940" width="1240" height="940"><rect width="1240" height="940" fill="#fff"/><line x1="300" y1="230" x2="680" y2="115" stroke="#1f2937" stroke-width="6"/><line x1="300" y1="230" x2="680" y2="115" stroke="#fff" stroke-width="2"/><line x1="680" y1="115" x2="1000" y2="230" stroke="#1f2937" stroke-width="6"/><line x1="680" y1="115" x2="1000" y2="230" stroke="#fff" stroke-width="2"/><line x1="300" y1="230" x2="680" y2="250" stroke="#1f2937" stroke-width="1.6"/><line x1="680" y1="250" x2="1000" y2="230" stroke="#1f2937" stroke-width="6"/><line x1="680" y1="250" x2="1000" y2="230" stroke="#fff" stroke-width="2"/><line x1="1000" y1="230" x2="1000" y2="395" stroke="#1f2937" stroke-width="1.6"/><line x1="1000" y1="395" x2="1000" y2="560" stroke="#1f2937" stroke-width="6"/><line x1="1000" y1="395" x2="1000" y2="560" stroke="#fff" stroke-width="2"/><line x1="300" y1="230" x2="680" y2="470" stroke="#1f2937" stroke-width="6"/><line x1="300" y1="230" x2="680" y2="470" stroke="#fff" stroke-width="2"/><line x1="680" y1="470" x2="1000" y2="560" stroke="#1f2937" stroke-width="6"/><line x1="680" y1="470" x2="1000" y2="560" stroke="#fff" stroke-width="2"/><line x1="250" y1="250" x2="160" y2="490" stroke="#1f2937" stroke-width="1.6"/><line x1="290" y1="250" x2="300" y2="490" stroke="#1f2937" stroke-width="1.6"/><line x1="360" y1="255" x2="560" y2="650" stroke="#1f2937" stroke-width="1.6"/><line x1="560" y1="650" x2="560" y2="810" stroke="#1f2937" stroke-width="6"/><line x1="560" y1="650" x2="560" y2="810" stroke="#fff" stroke-width="2"/><line x1="70" y1="40" x2="175" y2="115" stroke="#1f2937" stroke-width="1.6"/><line x1="175" y1="30" x2="175" y2="115" stroke="#1f2937" stroke-width="1.6"/><line x1="280" y1="40" x2="175" y2="115" stroke="#1f2937" stroke-width="1.6"/><line x1="175" y1="115" x2="300" y2="230" stroke="#1f2937" stroke-width="1.6"/><line x1="300" y1="140" x2="300" y2="230" stroke="#1f2937" stroke-width="1.6"/><line x1="410" y1="140" x2="300" y2="230" stroke="#1f2937" stroke-width="1.6"/><line x1="95" y1="190" x2="300" y2="230" stroke="#1f2937" stroke-width="1.6"/><line x1="95" y1="245" x2="300" y2="230" stroke="#1f2937" stroke-width="1.6"/><line x1="95" y1="300" x2="300" y2="230" stroke="#1f2937" stroke-width="1.6"/><line x1="880" y1="135" x2="1000" y2="230" stroke="#1f2937" stroke-width="1.6"/><line x1="1000" y1="120" x2="1000" y2="230" stroke="#1f2937" stroke-width="1.6"/><line x1="1130" y1="135" x2="1000" y2="230" stroke="#1f2937" stroke-width="1.6"/><line x1="1130" y1="320" x2="1000" y2="230" stroke="#1f2937" stroke-width="1.6"/><line x1="560" y1="185" x2="680" y2="250" stroke="#1f2937" stroke-width="1.6"/><line x1="770" y1="415" x2="680" y2="470" stroke="#1f2937" stroke-width="1.6"/><line x1="875" y1="650" x2="1000" y2="560" stroke="#1f2937" stroke-width="1.6"/><line x1="1000" y1="670" x2="1000" y2="560" stroke="#1f2937" stroke-width="1.6"/><line x1="1125" y1="650" x2="1000" y2="560" stroke="#1f2937" stroke-width="1.6"/><line x1="420" y1="885" x2="560" y2="810" stroke="#1f2937" stroke-width="1.6"/><line x1="520" y1="900" x2="560" y2="810" stroke="#1f2937" stroke-width="1.6"/><line x1="630" y1="900" x2="560" y2="810" stroke="#1f2937" stroke-width="1.6"/><line x1="760" y1="885" x2="560" y2="810" stroke="#1f2937" stroke-width="1.6"/><rect x="220.0" y="204.0" width="160" height="52" rx="3" fill="#dbeafe" stroke="#1f2937" stroke-width="2"/><text x="300" y="230" font-family="DejaVu Sans, Arial, sans-serif" font-size="15" font-weight="bold" text-anchor="middle" dominant-baseline="central" fill="#1f2937" >EMPLOYEE</text><rect x="920.0" y="204.0" width="160" height="52" rx="3" fill="#dbeafe" stroke="#1f2937" stroke-width="2"/><text x="1000" y="230" font-family="DejaVu Sans, Arial, sans-serif" font-size="15" font-weight="bold" text-anchor="middle" dominant-baseline="central" fill="#1f2937" >DEPARTMENT</text><rect x="920.0" y="534.0" width="160" height="52" rx="3" fill="#dbeafe" stroke="#1f2937" stroke-width="2"/><text x="1000" y="560" font-family="DejaVu Sans, Arial, sans-serif" font-size="15" font-weight="bold" text-anchor="middle" dominant-baseline="central" fill="#1f2937" >PROJECT</text><rect x="480.0" y="784.0" width="160" height="52" rx="3" fill="#dbeafe" stroke="#1f2937" stroke-width="2"/><rect x="485.0" y="789.0" width="150" height="42" rx="2" fill="none" stroke="#1f2937" stroke-width="1.6"/><text x="560" y="810" font-family="DejaVu Sans, Arial, sans-serif" font-size="15" font-weight="bold" text-anchor="middle" dominant-baseline="central" fill="#1f2937" >DEPENDENT</text><polygon points="680,77 752,115 680,153 608,115" fill="#fef3c7" stroke="#1f2937" stroke-width="2"/><text x="680" y="115" font-family="DejaVu Sans, Arial, sans-serif" font-size="13" font-weight="bold" text-anchor="middle" dominant-baseline="central" fill="#1f2937" >WORKS_FOR</text><polygon points="680,212 752,250 680,288 608,250" fill="#fef3c7" stroke="#1f2937" stroke-width="2"/><text x="680" y="250" font-family="DejaVu Sans, Arial, sans-serif" font-size="13" font-weight="bold" text-anchor="middle" dominant-baseline="central" fill="#1f2937" >MANAGES</text><polygon points="1000,357 1072,395 1000,433 928,395" fill="#fef3c7" stroke="#1f2937" stroke-width="2"/><text x="1000" y="395" font-family="DejaVu Sans, Arial, sans-serif" font-size="13" font-weight="bold" text-anchor="middle" dominant-baseline="central" fill="#1f2937" >CONTROLS</text><polygon points="680,432 752,470 680,508 608,470" fill="#fef3c7" stroke="#1f2937" stroke-width="2"/><text x="680" y="470" font-family="DejaVu Sans, Arial, sans-serif" font-size="13" font-weight="bold" text-anchor="middle" dominant-baseline="central" fill="#1f2937" >WORKS_ON</text><polygon points="230,452 312,490 230,528 148,490" fill="#fef3c7" stroke="#1f2937" stroke-width="2"/><text x="230" y="490" font-family="DejaVu Sans, Arial, sans-serif" font-size="13" font-weight="bold" text-anchor="middle" dominant-baseline="central" fill="#1f2937" >SUPERVISION</text><polygon points="560,608 652,650 560,692 468,650" fill="#fef3c7" stroke="#1f2937" stroke-width="2"/><polygon points="560,614 641,650 560,686 479,650" fill="none" stroke="#1f2937" stroke-width="1.6"/><text x="560" y="650" font-family="DejaVu Sans, Arial, sans-serif" font-size="13" font-weight="bold" text-anchor="middle" dominant-baseline="central" fill="#1f2937" >DEPENDENTS_OF</text><ellipse cx="70" cy="40" rx="40" ry="20" fill="#ffffff" stroke="#1f2937" stroke-width="1.6"/><text x="70" y="40" font-family="DejaVu Sans, Arial, sans-serif" font-size="13" font-weight="normal" text-anchor="middle" dominant-baseline="central" fill="#1f2937" >Fname</text><ellipse cx="175" cy="30" rx="40" ry="20" fill="#ffffff" stroke="#1f2937" stroke-width="1.6"/><text x="175" y="30" font-family="DejaVu Sans, Arial, sans-serif" font-size="13" font-weight="normal" text-anchor="middle" dominant-baseline="central" fill="#1f2937" >Minit</text><ellipse cx="280" cy="40" rx="40" ry="20" fill="#ffffff" stroke="#1f2937" stroke-width="1.6"/><text x="280" y="40" font-family="DejaVu Sans, Arial, sans-serif" font-size="13" font-weight="normal" text-anchor="middle" dominant-baseline="central" fill="#1f2937" >Lname</text><ellipse cx="175" cy="115" rx="40" ry="20" fill="#ffffff" stroke="#1f2937" stroke-width="1.6"/><text x="175" y="115" font-family="DejaVu Sans, Arial, sans-serif" font-size="13" font-weight="normal" text-anchor="middle" dominant-baseline="central" fill="#1f2937" >Name</text><ellipse cx="300" cy="140" rx="40" ry="20" fill="#ffffff" stroke="#1f2937" stroke-width="1.6"/><text x="300" y="140" font-family="DejaVu Sans, Arial, sans-serif" font-size="13" font-weight="normal" text-anchor="middle" dominant-baseline="central" fill="#1f2937" >Sex</text><ellipse cx="410" cy="140" rx="48.199999999999996" ry="20" fill="#ffffff" stroke="#1f2937" stroke-width="1.6"/><text x="410" y="140" font-family="DejaVu Sans, Arial, sans-serif" font-size="13" font-weight="normal" text-anchor="middle" dominant-baseline="central" fill="#1f2937" >Address</text><ellipse cx="95" cy="190" rx="40" ry="20" fill="#ffffff" stroke="#1f2937" stroke-width="1.6"/><text x="95" y="190" font-family="DejaVu Sans, Arial, sans-serif" font-size="13" font-weight="normal" text-anchor="middle" dominant-baseline="central" fill="#1f2937" >Ssn</text><line x1="82.91" y1="200" x2="107.09" y2="200" stroke="#1f2937" stroke-width="1.3"/><ellipse cx="95" cy="245" rx="40" ry="20" fill="#ffffff" stroke="#1f2937" stroke-width="1.6"/><text x="95" y="245" font-family="DejaVu Sans, Arial, sans-serif" font-size="13" font-weight="normal" text-anchor="middle" dominant-baseline="central" fill="#1f2937" >Bdate</text><ellipse cx="95" cy="300" rx="43.599999999999994" ry="20" fill="#ffffff" stroke="#1f2937" stroke-width="1.6"/><text x="95" y="300" font-family="DejaVu Sans, Arial, sans-serif" font-size="13" font-weight="normal" text-anchor="middle" dominant-baseline="central" fill="#1f2937" >Salary</text><ellipse cx="880" cy="135" rx="40" ry="20" fill="#ffffff" stroke="#1f2937" stroke-width="1.6"/><text x="880" y="135" font-family="DejaVu Sans, Arial, sans-serif" font-size="13" font-weight="normal" text-anchor="middle" dominant-baseline="central" fill="#1f2937" >Name</text><line x1="863.88" y1="145" x2="896.12" y2="145" stroke="#1f2937" stroke-width="1.3"/><ellipse cx="1000" cy="120" rx="43.599999999999994" ry="20" fill="#ffffff" stroke="#1f2937" stroke-width="1.6"/><text x="1000" y="120" font-family="DejaVu Sans, Arial, sans-serif" font-size="13" font-weight="normal" text-anchor="middle" dominant-baseline="central" fill="#1f2937" >Number</text><ellipse cx="1130" cy="135" rx="57.4" ry="20" fill="#ffffff" stroke="#1f2937" stroke-width="1.6"/><ellipse cx="1130" cy="135" rx="52.4" ry="15" fill="none" stroke="#1f2937" stroke-width="1.4"/><text x="1130" y="135" font-family="DejaVu Sans, Arial, sans-serif" font-size="13" font-weight="normal" text-anchor="middle" dominant-baseline="central" fill="#1f2937" >Locations</text><ellipse cx="1130" cy="320" rx="94.19999999999999" ry="20" fill="#ffffff" stroke="#1f2937" stroke-width="1.6" stroke-dasharray="6 4"/><text x="1130" y="320" font-family="DejaVu Sans, Arial, sans-serif" font-size="13" font-weight="normal" text-anchor="middle" dominant-baseline="central" fill="#1f2937" >NumberOfEmployees</text><ellipse cx="560" cy="185" rx="57.4" ry="20" fill="#ffffff" stroke="#1f2937" stroke-width="1.6"/><text x="560" y="185" font-family="DejaVu Sans, Arial, sans-serif" font-size="13" font-weight="normal" text-anchor="middle" dominant-baseline="central" fill="#1f2937" >StartDate</text><ellipse cx="770" cy="415" rx="40" ry="20" fill="#ffffff" stroke="#1f2937" stroke-width="1.6"/><text x="770" y="415" font-family="DejaVu Sans, Arial, sans-serif" font-size="13" font-weight="normal" text-anchor="middle" dominant-baseline="central" fill="#1f2937" >Hours</text><ellipse cx="875" cy="650" rx="40" ry="20" fill="#ffffff" stroke="#1f2937" stroke-width="1.6"/><text x="875" y="650" font-family="DejaVu Sans, Arial, sans-serif" font-size="13" font-weight="normal" text-anchor="middle" dominant-baseline="central" fill="#1f2937" >Name</text><line x1="858.88" y1="660" x2="891.12" y2="660" stroke="#1f2937" stroke-width="1.3"/><ellipse cx="1000" cy="670" rx="43.599999999999994" ry="20" fill="#ffffff" stroke="#1f2937" stroke-width="1.6"/><text x="1000" y="670" font-family="DejaVu Sans, Arial, sans-serif" font-size="13" font-weight="normal" text-anchor="middle" dominant-baseline="central" fill="#1f2937" >Number</text><ellipse cx="1125" cy="650" rx="52.8" ry="20" fill="#ffffff" stroke="#1f2937" stroke-width="1.6"/><text x="1125" y="650" font-family="DejaVu Sans, Arial, sans-serif" font-size="13" font-weight="normal" text-anchor="middle" dominant-baseline="central" fill="#1f2937" >Location</text><ellipse cx="420" cy="885" rx="40" ry="20" fill="#ffffff" stroke="#1f2937" stroke-width="1.6"/><text x="420" y="885" font-family="DejaVu Sans, Arial, sans-serif" font-size="13" font-weight="normal" text-anchor="middle" dominant-baseline="central" fill="#1f2937" >Name</text><line x1="403.88" y1="895" x2="436.12" y2="895" stroke="#1f2937" stroke-width="1.3" stroke-dasharray="4 3"/><ellipse cx="520" cy="900" rx="40" ry="20" fill="#ffffff" stroke="#1f2937" stroke-width="1.6"/><text x="520" y="900" font-family="DejaVu Sans, Arial, sans-serif" font-size="13" font-weight="normal" text-anchor="middle" dominant-baseline="central" fill="#1f2937" >Sex</text><ellipse cx="630" cy="900" rx="57.4" ry="20" fill="#ffffff" stroke="#1f2937" stroke-width="1.6"/><text x="630" y="900" font-family="DejaVu Sans, Arial, sans-serif" font-size="13" font-weight="normal" text-anchor="middle" dominant-baseline="central" fill="#1f2937" >BirthDate</text><ellipse cx="760" cy="885" rx="71.19999999999999" ry="20" fill="#ffffff" stroke="#1f2937" stroke-width="1.6"/><text x="760" y="885" font-family="DejaVu Sans, Arial, sans-serif" font-size="13" font-weight="normal" text-anchor="middle" dominant-baseline="central" fill="#1f2937" >Relationship</text><text x="560" y="140" font-family="DejaVu Sans, Arial, sans-serif" font-size="15" font-weight="bold" text-anchor="middle" dominant-baseline="central" fill="#1f2937" font-style="italic">N</text><text x="800" y="135" font-family="DejaVu Sans, Arial, sans-serif" font-size="15" font-weight="bold" text-anchor="middle" dominant-baseline="central" fill="#1f2937" font-style="italic">1</text><text x="590" y="230" font-family="DejaVu Sans, Arial, sans-serif" font-size="15" font-weight="bold" text-anchor="middle" dominant-baseline="central" fill="#1f2937" font-style="italic">1</text><text x="800" y="228" font-family="DejaVu Sans, Arial, sans-serif" font-size="15" font-weight="bold" text-anchor="middle" dominant-baseline="central" fill="#1f2937" font-style="italic">1</text><text x="1018" y="300" font-family="DejaVu Sans, Arial, sans-serif" font-size="15" font-weight="bold" text-anchor="middle" dominant-baseline="central" fill="#1f2937" font-style="italic">1</text><text x="1018" y="480" font-family="DejaVu Sans, Arial, sans-serif" font-size="15" font-weight="bold" text-anchor="middle" dominant-baseline="central" fill="#1f2937" font-style="italic">N</text><text x="500" y="330" font-family="DejaVu Sans, Arial, sans-serif" font-size="15" font-weight="bold" text-anchor="middle" dominant-baseline="central" fill="#1f2937" font-style="italic">M</text><text x="815" y="482" font-family="DejaVu Sans, Arial, sans-serif" font-size="15" font-weight="bold" text-anchor="middle" dominant-baseline="central" fill="#1f2937" font-style="italic">N</text><text x="150" y="420" font-family="DejaVu Sans, Arial, sans-serif" font-size="15" font-weight="bold" text-anchor="middle" dominant-baseline="central" fill="#1f2937" font-style="italic">1</text><text x="318" y="450" font-family="DejaVu Sans, Arial, sans-serif" font-size="15" font-weight="bold" text-anchor="middle" dominant-baseline="central" fill="#1f2937" font-style="italic">N</text><text x="160" y="360" font-family="DejaVu Sans, Arial, sans-serif" font-size="12" font-weight="normal" text-anchor="middle" dominant-baseline="central" fill="#1f2937" font-style="italic">supervisor</text><text x="352" y="410" font-family="DejaVu Sans, Arial, sans-serif" font-size="12" font-weight="normal" text-anchor="middle" dominant-baseline="central" fill="#1f2937" font-style="italic">supervisee</text><text x="508" y="505" font-family="DejaVu Sans, Arial, sans-serif" font-size="15" font-weight="bold" text-anchor="middle" dominant-baseline="central" fill="#1f2937" font-style="italic">1</text><text x="578" y="732" font-family="DejaVu Sans, Arial, sans-serif" font-size="15" font-weight="bold" text-anchor="middle" dominant-baseline="central" fill="#1f2937" font-style="italic">N</text></svg>